<svg width="121" height="120" viewBox="0 0 121 120" fill="none" xmlns="http://www.w3.org/2000/svg">
<path d="M106.632 98.2707C112.79 90.8662 117.074 82.0884 119.119 72.6799C121.165 63.2713 120.913 53.5088 118.385 44.2182C115.856 34.9276 111.126 26.3821 104.593 19.3048C98.0609 12.2275 89.9188 6.82647 80.8557 3.55866C71.7927 0.290846 62.0754 -0.747623 52.5258 0.531098C42.9762 1.80982 33.8752 5.36811 25.9929 10.905C18.1105 16.4418 11.6786 23.7943 7.24121 32.3405C2.80385 40.8868 0.491584 50.3752 0.500023 60.0033C0.503261 73.9997 5.43908 87.548 14.4414 98.2707L14.3556 98.3435C14.6558 98.7035 14.9988 99.012 15.3076 99.3677C15.6935 99.8091 16.1095 100.225 16.5083 100.653C17.7091 101.956 18.9441 103.207 20.2392 104.381C20.6337 104.741 21.0411 105.076 21.4399 105.418C22.8122 106.601 24.223 107.724 25.6853 108.77C25.874 108.898 26.0456 109.065 26.2342 109.198V109.147C36.2779 116.209 48.2595 120 60.5408 120C72.8221 120 84.8037 116.209 94.8474 109.147V109.198C95.0361 109.065 95.2033 108.898 95.3963 108.77C96.8543 107.72 98.2695 106.601 99.6417 105.418C100.041 105.076 100.448 104.737 100.842 104.381C102.138 103.203 103.373 101.956 104.573 100.653C104.972 100.225 105.384 99.8091 105.774 99.3677C106.079 99.012 106.426 98.7035 106.726 98.3392L106.632 98.2707ZM60.5365 25.7212C64.3532 25.7212 68.0842 26.8522 71.2576 28.9711C74.4311 31.09 76.9045 34.1017 78.3651 37.6253C79.8256 41.149 80.2078 45.0263 79.4632 48.7669C78.7186 52.5076 76.8807 55.9436 74.1819 58.6405C71.4831 61.3374 68.0446 63.174 64.3013 63.918C60.5579 64.6621 56.6779 64.2802 53.1517 62.8207C49.6256 61.3611 46.6117 58.8895 44.4913 55.7183C42.3709 52.5471 41.2391 48.8188 41.2391 45.0049C41.2391 39.8905 43.2722 34.9857 46.8912 31.3693C50.5102 27.7529 55.4185 25.7212 60.5365 25.7212V25.7212ZM26.26 98.2707C26.3344 92.644 28.6226 87.2728 32.6297 83.3191C36.6367 79.3654 42.0404 77.1472 47.6716 77.1443H73.4015C79.0327 77.1472 84.4363 79.3654 88.4434 83.3191C92.4505 87.2728 94.7387 92.644 94.8131 98.2707C85.4081 106.74 73.1968 111.427 60.5365 111.427C47.8763 111.427 35.6649 106.74 26.26 98.2707V98.2707Z" fill="#D0D0D0"/>
</svg>
