<svg width="16" height="16" viewBox="0 0 16 16" fill="none" xmlns="http://www.w3.org/2000/svg">
<path fill-rule="evenodd" clip-rule="evenodd" d="M4.29483 1.3335H11.7082C13.3969 1.39146 14.7206 2.80456 14.6682 4.4935V8.84016C14.6933 9.65584 14.3922 10.4479 13.8317 11.041C13.2711 11.6341 12.4973 11.9793 11.6815 12.0002H5.33483C4.89563 12.0092 4.47911 12.197 4.1815 12.5202L2.6015 14.2068C2.46764 14.3528 2.27955 14.4372 2.0815 14.4402C1.87695 14.435 1.68298 14.3482 1.54274 14.1992C1.40251 14.0502 1.32765 13.8513 1.33483 13.6468V4.4935C1.28241 2.80456 2.60608 1.39146 4.29483 1.3335ZM11.7082 11.0002C12.8448 10.9427 13.721 9.97702 13.6682 8.84016V4.4935C13.721 3.35664 12.8448 2.39101 11.7082 2.3335H4.29483C3.1582 2.39101 2.28198 3.35664 2.33483 4.4935V13.0268L3.4215 11.8402C3.91845 11.3115 4.60934 11.0082 5.33483 11.0002H11.7082Z" fill="#FF592C"/>
<path d="M5.5015 5.8335H8.83483C9.11097 5.8335 9.33483 5.60964 9.33483 5.3335C9.33483 5.05735 9.11097 4.8335 8.83483 4.8335H5.5015C5.22535 4.8335 5.0015 5.05735 5.0015 5.3335C5.0015 5.60964 5.22535 5.8335 5.5015 5.8335V5.8335Z" fill="#FF592C"/>
<path d="M10.5015 7.5H5.5015C5.22535 7.5 5.0015 7.72386 5.0015 8C5.0015 8.27614 5.22535 8.5 5.5015 8.5H10.5015C10.7776 8.5 11.0015 8.27614 11.0015 8C11.0015 7.72386 10.7776 7.5 10.5015 7.5Z" fill="#FF592C"/>
</svg>
