<svg width="36" height="36" viewBox="0 0 36 36" fill="none" xmlns="http://www.w3.org/2000/svg">
<path d="M22.5 12.75L22.0074 12.2574C20.8821 11.1321 19.356 10.5 17.7647 10.5H17.5C13.634 10.5 10.5 13.634 10.5 17.5L10.5 17.625L10.5 17.75C10.5 21.616 13.634 24.75 17.5 24.75H18.2238C19.5354 24.75 20.808 24.3036 21.8322 23.4843V23.4843C23.2024 22.3881 24 20.7285 24 18.9738V18.001C24 18.0004 23.9996 18 23.999 18H18" stroke="#1C1243" stroke-width="2" stroke-linecap="round"/>
<path d="M12.5766 5.01157L11.8958 5.16243C7.80902 6.06801 4.58707 9.20975 3.57809 13.2731C2.8073 16.3772 2.8073 19.6228 3.57809 22.7269C4.58707 26.7903 7.80902 29.932 11.8958 30.8376L12.5766 30.9884C15.6549 31.6705 18.8451 31.6705 21.9234 30.9884L22.6042 30.8376C26.691 29.932 29.9129 26.7902 30.9219 22.7269C31.6927 19.6228 31.6927 16.3772 30.9219 13.2731C29.9129 9.20976 26.691 6.06801 22.6042 5.16243L21.9234 5.01157C18.8451 4.32948 15.6549 4.32948 12.5766 5.01157Z" stroke="#1C1243" stroke-width="1.5" stroke-linecap="round"/>
</svg>
