<svg width="24" height="24" viewBox="0 0 24 24" fill="none" xmlns="http://www.w3.org/2000/svg">
<path d="M8 12.5C8.60108 11.9489 8.77173 11.0842 8.62064 10.2829C8.53996 9.85493 8.49842 9.41999 8.5 9C8.5 7.66498 8.64588 6.35994 9.38758 5.2499C10.1293 4.13987 11.1835 3.27471 12.4169 2.76382C13.6503 2.25292 15.0075 2.11925 16.3169 2.3797C17.6262 2.64015 18.829 3.28303 19.773 4.22703C20.717 5.17104 21.3599 6.37377 21.6203 7.68314C21.8808 8.99252 21.7471 10.3497 21.2362 11.5831C20.7253 12.8165 19.8601 13.8707 18.7501 14.6124C17.6401 15.3541 16.335 15.75 15 15.75C14.499 15.7519 14.0006 15.6966 13.5144 15.5861C12.8775 15.4413 12.1814 15.5686 11.7195 16.0305V16.0305C11.4212 16.3288 11.0129 16.5 10.591 16.5H10.125C9.50368 16.5 9 17.0037 9 17.625V17.625C9 18.2463 8.49632 18.75 7.875 18.75V18.75C7.25368 18.75 6.75 19.2537 6.75 19.875V19.875C6.75 20.4963 6.24632 21 5.625 21H4.875C3.83947 21 3 20.1605 3 19.125V18.3764C3 17.6572 3.29521 16.9696 3.81661 16.4742L8 12.5V12.5Z" stroke="#1C1243" stroke-width="1.5" stroke-linecap="round" stroke-linejoin="round"/>
<path d="M16.75 8.125C16.75 8.60825 16.3582 9 15.875 9C15.3918 9 15 8.60825 15 8.125C15 7.64175 15.3918 7.25 15.875 7.25C16.3582 7.25 16.75 7.64175 16.75 8.125Z" fill="#1C1243" stroke="#1C1243" stroke-width="0.125"/>
</svg>
