<svg width="123" height="86" viewBox="0 0 123 86" fill="none" xmlns="http://www.w3.org/2000/svg">
<path fill-rule="evenodd" clip-rule="evenodd" d="M12 0C5.37258 0 0 5.37258 0 12V74C0 80.6274 5.37259 86 12 86H111C117.627 86 123 80.6274 123 74V12C123 5.37258 117.627 0 111 0H12ZM68.7063 12.1187C70.4333 9.47026 71.2967 8.14603 72.38 7.66612C73.4118 7.20899 74.5887 7.20899 75.6205 7.66612C76.7037 8.14603 77.5672 9.47027 79.2942 12.1188L109.197 57.978C111.226 61.0888 112.24 62.6442 112.182 63.931C112.126 65.1539 111.514 66.284 110.52 66.9983C109.474 67.75 107.617 67.75 103.903 67.75H57.4794C58.8626 69.8643 59.5475 71.0978 59.507 72.1531C59.46 73.3821 58.8502 74.5211 57.8535 75.2416C56.8044 76 54.9286 76 51.1768 76H22.8236C19.0719 76 17.196 76 16.147 75.2416C15.1503 74.5211 14.5405 73.3821 14.4934 72.1531C14.4438 70.8596 15.4838 69.2985 17.5639 66.1761L17.5639 66.1761L31.7405 44.8955L31.7405 44.8954C33.461 42.3128 34.3213 41.0214 35.3951 40.551C36.4182 40.1027 37.5822 40.1027 38.6054 40.551C39.6792 41.0214 40.5395 42.3128 42.26 44.8955L44.824 48.7443L68.7063 12.1187Z" fill="#D9D9D9"/>
</svg>
