<svg width="19" height="20" viewBox="0 0 19 20" fill="none" xmlns="http://www.w3.org/2000/svg">
<path fill-rule="evenodd" clip-rule="evenodd" d="M17.9552 7.57031L14.7157 1.24936C14.3111 0.478458 13.5412 0 12.7054 0C11.8696 0 11.0997 0.478458 10.695 1.24936L7.40385 7.56425C7.01717 8.31425 7.03362 9.22343 7.44713 9.95735C7.86063 10.6913 8.61014 11.1415 9.41992 11.1425H15.9334C16.7425 11.1425 17.4919 10.6939 17.9065 9.9615C18.321 9.22908 18.3395 8.32082 17.9552 7.57031ZM12.1521 3.47578C12.1521 3.16699 12.3896 2.91667 12.6825 2.91667C12.9754 2.91667 13.2129 3.16699 13.2129 3.47578V5.77932C13.2129 6.08811 12.9754 6.33843 12.6825 6.33843C12.3896 6.33843 12.1521 6.08811 12.1521 5.77932V3.47578ZM12.6825 8.50789C12.9754 8.50789 13.2129 8.25756 13.2129 7.94878L13.2058 7.94132C13.2058 7.63665 12.9715 7.38966 12.6825 7.38966C12.3912 7.39368 12.1559 7.64167 12.1521 7.94878C12.1521 8.25756 12.3896 8.50789 12.6825 8.50789Z" fill="#FF592C"/>
<path fill-rule="evenodd" clip-rule="evenodd" d="M8.21367 5.84521L7.58123 7.05868H3.67325C2.7184 7.05868 1.94435 7.87348 1.94435 8.87858V15.2118C2.33714 14.9488 2.79279 14.8086 3.25831 14.8074H12.1333V11.146H13.286V15.4138C13.286 15.7489 13.0279 16.0205 12.7097 16.0205H3.25832C2.53263 16.0205 1.94435 16.6397 1.94435 17.4036C1.94435 18.1675 2.53263 18.7867 3.25832 18.7867H12.7097C13.0279 18.7867 13.286 19.0583 13.286 19.3933C13.286 19.7284 13.0279 20 12.7097 20H3.25832C1.89607 20 0.791748 18.8375 0.791748 17.4036V8.87838C0.791748 7.20321 2.08184 5.84521 3.67325 5.84521H8.21367ZM2.68202 17.4036C2.68202 17.0685 2.94003 16.7969 3.25832 16.7969H11.7645C12.0828 16.7969 12.3408 17.0685 12.3408 17.4036C12.3408 17.7386 12.0828 18.0102 11.7645 18.0102H3.25832C2.94003 18.0102 2.68202 17.7386 2.68202 17.4036Z" fill="#FF592C"/>
</svg>
